<svg xmlns="http://www.w3.org/2000/svg" xmlns:xlink="http://www.w3.org/1999/xlink" width="500" zoomAndPan="magnify" viewBox="0 0 375 374.999991" height="500" preserveAspectRatio="xMidYMid meet" version="1.0"><defs><clipPath id="4af02b23c3"><path d="M 55 42 L 314 42 L 314 333 L 55 333 Z M 55 42 " clip-rule="nonzero"/></clipPath><clipPath id="7f22007985"><path d="M 139.179688 -1.816406 L 361.996094 267.851562 L 230.105469 376.828125 L 7.289062 107.15625 Z M 139.179688 -1.816406 " clip-rule="nonzero"/></clipPath><clipPath id="9f70a1c457"><path d="M 139.179688 -1.816406 L 361.996094 267.851562 L 230.105469 376.828125 L 7.289062 107.15625 Z M 139.179688 -1.816406 " clip-rule="nonzero"/></clipPath><clipPath id="aa12c99cac"><path d="M 99.058594 12.691406 L 270.144531 12.691406 L 270.144531 362.5 L 99.058594 362.5 Z M 99.058594 12.691406 " clip-rule="nonzero"/></clipPath><clipPath id="c9c3067c76"><path d="M 9.691406 101.84375 L 359.503906 101.84375 L 359.503906 272.929688 L 9.691406 272.929688 Z M 9.691406 101.84375 " clip-rule="nonzero"/></clipPath><clipPath id="f1ef789706"><path d="M 0.359375 3 L 369 3 L 369 372 L 0.359375 372 Z M 0.359375 3 " clip-rule="nonzero"/></clipPath><clipPath id="d52a1eccd6"><path d="M 368.664062 124.453125 L 121.3125 371.808594 L 0.335938 250.832031 L 247.6875 3.476562 Z M 368.664062 124.453125 " clip-rule="nonzero"/></clipPath><clipPath id="bf6d15669c"><path d="M 46 46 L 323 46 L 323 323 L 46 323 Z M 46 46 " clip-rule="nonzero"/></clipPath><clipPath id="782b9a9386"><path d="M 368.664062 121.453125 L 121.3125 368.808594 L 0.335938 247.832031 L 247.6875 0.476562 Z M 368.664062 121.453125 " clip-rule="nonzero"/></clipPath><clipPath id="2597559cd5"><path d="M 0.324219 247.535156 L 247.679688 0.179688 L 368.65625 121.15625 L 121.300781 368.511719 Z M 0.324219 247.535156 " clip-rule="nonzero"/></clipPath><clipPath id="6783076a62"><rect x="0" width="369" y="0" height="369"/></clipPath><clipPath id="118a45b253"><rect x="0" width="369" y="0" height="375"/></clipPath></defs><g transform="matrix(1, 0, 0, 1, 3, 0)"><g clip-path="url(#118a45b253)"><g clip-path="url(#4af02b23c3)"><g clip-path="url(#7f22007985)"><g clip-path="url(#9f70a1c457)"><path fill="#292929" d="M 242.332031 139.707031 C 256.898438 157.332031 269.34375 175.800781 279.320312 194.679688 C 288.832031 212.667969 295.703125 230.207031 299.644531 246.726562 C 303.410156 262.480469 304.363281 277.023438 302.40625 288.707031 C 300.496094 299.898438 296.058594 308.464844 289.15625 314.164062 C 282.257812 319.867188 273.007812 322.613281 261.65625 322.375 C 249.8125 322.09375 235.710938 318.417969 220.949219 311.75 C 205.472656 304.761719 189.542969 294.707031 173.667969 281.972656 C 157.054688 268.667969 141.265625 252.960938 126.65625 235.28125 C 112.050781 217.601562 99.648438 199.1875 89.671875 180.308594 C 80.160156 162.320312 73.285156 144.78125 69.34375 128.265625 C 65.578125 112.507812 64.628906 97.964844 66.585938 86.28125 C 68.492188 75.089844 72.933594 66.523438 79.832031 60.824219 C 86.734375 55.121094 95.984375 52.375 107.335938 52.613281 C 119.179688 52.894531 133.28125 56.570312 148.042969 63.238281 C 163.519531 70.226562 179.449219 80.285156 195.320312 93.019531 C 211.925781 106.417969 227.769531 122.078125 242.332031 139.707031 M 250.417969 133.027344 C 188.914062 58.585938 109.539062 22.675781 73.152344 52.738281 C 36.769531 82.800781 57.066406 167.523438 118.574219 241.964844 C 180.078125 316.402344 259.398438 352.359375 295.835938 322.25 C 332.222656 292.1875 311.925781 207.464844 250.417969 133.027344 Z M 250.417969 133.027344 " fill-opacity="1" fill-rule="nonzero"/></g></g></g><g clip-path="url(#aa12c99cac)"><path fill="#00754a" d="M 259.519531 187.496094 C 259.519531 210.359375 257.355469 232.523438 253.019531 253.429688 C 248.894531 273.359375 243.019531 291.257812 235.539062 306.5 C 228.40625 321.046875 219.875 332.863281 210.925781 340.625 C 202.324219 348.035156 193.445312 351.8125 184.496094 351.8125 C 175.546875 351.8125 166.664062 348.035156 158.066406 340.625 C 149.113281 332.863281 140.585938 321.046875 133.453125 306.5 C 125.972656 291.257812 120.097656 273.359375 115.972656 253.429688 C 111.636719 232.59375 109.46875 210.429688 109.46875 187.496094 C 109.46875 164.558594 111.636719 142.464844 115.972656 121.558594 C 120.097656 101.628906 125.972656 83.730469 133.453125 68.488281 C 140.585938 53.945312 149.113281 42.128906 158.066406 34.367188 C 166.664062 26.953125 175.546875 23.179688 184.496094 23.179688 C 193.445312 23.179688 202.324219 26.953125 210.925781 34.367188 C 219.875 42.128906 228.40625 53.945312 235.539062 68.488281 C 243.019531 83.730469 248.894531 101.628906 253.019531 121.558594 C 257.285156 142.464844 259.519531 164.628906 259.519531 187.496094 M 270.007812 187.496094 C 270.007812 90.933594 231.691406 12.691406 184.496094 12.691406 C 137.296875 12.691406 98.980469 90.933594 98.980469 187.496094 C 98.980469 284.054688 137.226562 362.296875 184.496094 362.296875 C 231.691406 362.296875 270.007812 284.054688 270.007812 187.496094 Z M 270.007812 187.496094 " fill-opacity="1" fill-rule="nonzero"/></g><g clip-path="url(#c9c3067c76)"><path fill="#10b981" d="M 184.496094 112.46875 C 207.359375 112.46875 229.523438 114.636719 250.429688 118.972656 C 270.359375 123.097656 288.257812 128.96875 303.503906 136.453125 C 318.046875 143.582031 329.863281 152.113281 337.625 161.0625 C 345.035156 169.664062 348.8125 178.542969 348.8125 187.496094 C 348.8125 196.445312 345.035156 205.324219 337.625 213.925781 C 329.863281 222.875 318.046875 231.40625 303.503906 238.539062 C 288.257812 246.019531 270.359375 251.890625 250.429688 256.019531 C 229.59375 260.351562 207.429688 262.519531 184.496094 262.519531 C 161.5625 262.519531 139.464844 260.351562 118.558594 256.019531 C 98.632812 251.890625 80.730469 246.019531 65.488281 238.539062 C 50.945312 231.40625 39.128906 222.875 31.367188 213.925781 C 23.953125 205.324219 20.179688 196.445312 20.179688 187.496094 C 20.179688 178.542969 23.953125 169.664062 31.367188 161.0625 C 39.128906 152.113281 50.945312 143.582031 65.488281 136.453125 C 80.730469 128.96875 98.632812 123.097656 118.558594 118.972656 C 139.464844 114.707031 161.632812 112.46875 184.496094 112.46875 M 184.496094 101.980469 C 87.933594 101.980469 9.691406 140.296875 9.691406 187.496094 C 9.691406 234.691406 87.933594 273.007812 184.496094 273.007812 C 281.058594 273.007812 359.300781 234.761719 359.300781 187.496094 C 359.300781 140.296875 281.058594 101.980469 184.496094 101.980469 Z M 184.496094 101.980469 " fill-opacity="1" fill-rule="nonzero"/></g><g clip-path="url(#f1ef789706)"><g clip-path="url(#d52a1eccd6)"><g transform="matrix(1, 0, 0, 1, 0, 3)"><g clip-path="url(#6783076a62)"><g clip-path="url(#bf6d15669c)"><g clip-path="url(#782b9a9386)"><g clip-path="url(#2597559cd5)"><path fill="#5640e4" d="M 131.445312 131.441406 C 147.613281 115.277344 164.816406 101.136719 182.664062 89.417969 C 199.675781 78.242188 216.484375 69.738281 232.554688 64.25 C 247.878906 59.011719 262.269531 56.6875 274.085938 57.527344 C 285.40625 58.367188 294.355469 61.976562 300.683594 68.304688 C 307.011719 74.632812 310.621094 83.582031 311.460938 94.90625 C 312.304688 106.722656 309.980469 121.109375 304.738281 136.4375 C 299.25 152.503906 290.746094 169.316406 279.574219 186.324219 C 267.902344 204.121094 253.765625 221.328125 237.546875 237.546875 C 221.328125 253.761719 204.171875 267.855469 186.324219 279.570312 C 169.316406 290.746094 152.507812 299.25 136.4375 304.738281 C 121.109375 309.980469 106.722656 312.300781 94.90625 311.460938 C 83.582031 310.621094 74.636719 307.011719 68.304688 300.683594 C 61.976562 294.355469 58.367188 285.40625 57.527344 274.082031 C 56.6875 262.265625 59.011719 247.878906 64.253906 232.550781 C 69.738281 216.484375 78.246094 199.671875 89.417969 182.664062 C 101.183594 164.867188 115.277344 147.609375 131.445312 131.441406 M 124.027344 124.027344 C 55.746094 192.304688 27.515625 274.726562 60.890625 308.101562 C 94.261719 341.472656 176.683594 313.242188 244.964844 244.960938 C 313.242188 176.683594 341.523438 94.3125 308.101562 60.890625 C 274.726562 27.515625 192.308594 55.746094 124.027344 124.027344 Z M 124.027344 124.027344 " fill-opacity="1" fill-rule="nonzero"/></g></g></g></g></g></g></g></g></g></svg>